<?xml version="1.0" encoding="UTF-8" standalone="no"?>
<!-- Created with Inkscape (http://www.inkscape.org/) -->

<svg
   width="20.407578mm"
   height="29.758003mm"
   viewBox="0 0 20.407578 29.758003"
   version="1.1"
   id="svg5"
   xmlns="http://www.w3.org/2000/svg"
   xmlns:svg="http://www.w3.org/2000/svg">
  <defs
     id="defs2" />
  <g
     id="layer1"
     transform="translate(-82.819834,-123.77761)">
    <g
       id="g3027">
      <rect
         style="fill:#800080;stroke:#000000;stroke-width:0.264583;stroke-opacity:1"
         id="rect2914"
         width="0.9504528"
         height="24.865171"
         x="147.4081"
         y="67.684494"
         ry="0.4752264"
         transform="rotate(29.479214)" />
      <circle
         style="fill:#ff2a2a;stroke:#000000;stroke-width:0.264583;stroke-opacity:1"
         id="path2805"
         cx="95.276299"
         cy="131.72871"
         r="7.8188181" />
      <path
         style="fill:none;fill-rule:evenodd;stroke:#000000;stroke-width:0.264583"
         id="path2860"
         d="m 95.08194,131.95705 c 0.325002,0.21906 -0.134954,0.54617 -0.364104,0.54017 -0.620984,-0.0163 -0.865128,-0.76007 -0.716246,-1.26838 0.266315,-0.90925 1.356711,-1.222 2.172662,-0.89232 1.197441,0.48383 1.58744,1.96072 1.068387,3.07694 -0.691817,1.48775 -2.567242,1.95641 -3.981219,1.24446 -1.779346,-0.89592 -2.327185,-3.17495 -1.420529,-4.8855 1.098083,-2.0717 3.783309,-2.69899 5.789777,-1.5966 2.364552,1.29914 3.071462,4.39208 1.772669,6.69406 -1.499505,2.65772 -5.001128,3.44436 -7.598333,1.94874 -2.95111,-1.69942 -3.817561,-5.61037 -2.124812,-8.50261 1.89901,-3.24467 6.219747,-4.19099 9.406891,-2.30089 3.538337,2.09838 4.564577,6.82924 2.476957,10.31117" />
    </g>
  </g>
</svg>
